<svg version="1.1" xmlns="http://www.w3.org/2000/svg" x="0px" y="0px" viewBox="0 0 256 256"
     enable-background="new 0 0 256 256" xml:space="preserve">
<g><path fill="#000000" d="M128,150.6c-38.8,0-70.3-31.5-70.3-70.3S89.2,10,128,10c38.8,0,70.3,31.5,70.3,70.3S166.8,150.6,128,150.6z M128,20.7c-32.9,0-59.6,26.8-59.6,59.6c0,32.9,26.8,59.6,59.6,59.6c32.9,0,59.6-26.8,59.6-59.6C187.6,47.4,160.9,20.7,128,20.7z"/>
    <path fill="#000000"
          d="M234,246h-10.7c0-52.5-42.7-95.3-95.3-95.3S32.7,193.5,32.7,246H22c0-58.4,47.5-106,106-106C186.4,140,234,187.6,234,246z"/></g>
</svg>